<svg xmlns="http://www.w3.org/2000/svg" width="300" height="225"><defs/><path fill="#667b76" d="M0 0h300v225H0z"/><g fill-opacity=".5" transform="translate(.6 .6) scale(1.17188)"><ellipse cx="144" cy="8" fill="#fff" rx="135" ry="54"/><ellipse cx="11" cy="132" rx="97" ry="97"/><ellipse fill="#003643" rx="1" ry="1" transform="matrix(-8.21665 -32.0858 214.5794 -54.95025 187.2 182.1)"/><ellipse fill="#bbebf7" rx="1" ry="1" transform="rotate(-38.9 245.5 -114.5) scale(45.1131 16.77196)"/><ellipse cx="117" cy="22" fill="#eff" rx="97" ry="33"/><ellipse fill="#bb841f" rx="1" ry="1" transform="matrix(-10.1766 -31.8875 87.0363 -27.77683 242.4 101.5)"/><path fill="#001e29" d="M0 73h127v41H0z"/><ellipse cx="34" cy="152" fill="#031005" rx="52" ry="52"/><ellipse fill="#a9cade" rx="1" ry="1" transform="rotate(156.4 91.8 42.1) scale(65.14358 23.58235)"/><ellipse fill="#e3fffb" rx="1" ry="1" transform="matrix(65.77251 33.02948 -5.05837 10.07287 15.3 12)"/><path fill="#f9d1aa" d="M189 108l82-43-55 6z"/><ellipse fill="#002234" rx="1" ry="1" transform="matrix(-41.37865 -24.9522 11.93241 -19.78773 3 45.2)"/><ellipse cx="226" cy="132" fill="#514f19" rx="66" ry="18"/><ellipse fill="#5c929f" rx="1" ry="1" transform="rotate(96.7 3 138) scale(20.05219 56.32988)"/><ellipse fill="#e9f5eb" rx="1" ry="1" transform="matrix(-4.25026 12.72569 -27.84897 -9.30129 175 54.9)"/><ellipse fill="#7f9fb5" rx="1" ry="1" transform="matrix(-2.42319 8.3031 -50.25864 -14.66755 186 33)"/><ellipse fill="#0b5570" rx="1" ry="1" transform="rotate(-157 59.6 28.9) scale(38.56396 18.03734)"/><ellipse cx="161" cy="82" fill="#295568" rx="18" ry="18"/><ellipse cx="246" cy="165" fill="#002627" rx="13" ry="28"/><path fill="#d4dad2" d="M135 134l34-26-34-17z"/><ellipse fill="#005a66" rx="1" ry="1" transform="matrix(39.99757 -2.89132 2.049 28.34525 121.9 191)"/><ellipse fill="#edf8ec" rx="1" ry="1" transform="matrix(-36.90071 -9.26152 4.34776 -17.3228 119.4 44.9)"/><ellipse fill="#373c25" rx="1" ry="1" transform="matrix(28.29926 -2.69414 1.43081 15.0293 79.6 166)"/><path fill="#172632" d="M248 36h8v19h-8z"/><path fill="#f4fef3" d="M235 3l-75-19-67 31z"/><ellipse fill="#c4e9ec" rx="1" ry="1" transform="matrix(31.47175 15.29364 -9.91796 20.4095 18 0)"/><path fill="#98bfc8" d="M161 150l-70-11 44-40z"/><path fill="#0e2e31" d="M154 80L8 101l75 36z"/><path fill="#888f91" d="M111 61h43v17h-43z"/><ellipse fill="#9dbacc" rx="1" ry="1" transform="matrix(-27.34227 18.6621 -15.59703 -22.85155 204 33.5)"/><path fill="#8f7069" d="M167.8 86l93.1-53.3 4.2-19.9-26.7 62.1z"/><ellipse cx="255" cy="107" fill="#a5853e" rx="48" ry="26"/><ellipse fill="#21434e" rx="1" ry="1" transform="rotate(79.4 -13.5 62.4) scale(19.77361 18.43314)"/><path fill="#57574d" d="M186.2 76.3l21.9 12-6.3 11.4-21.9-12z"/><ellipse cx="243" cy="25" fill="#b9e0eb" rx="16" ry="16"/><path fill="#70692f" d="M216.3 106.3l-59.3 9.4-7.7 13.8 18.8 10.3z"/><path fill="#002032" d="M-16 9.4l14.2 30.2 28.4-4.9-7-5.9z"/><path fill="#f2c895" d="M247.7 65.9L271 85.2l-35.3 17.1L271 69.8z"/><ellipse fill="#145564" rx="1" ry="1" transform="rotate(-56.7 273.5 -125.4) scale(12.66625 49.37476)"/><path fill="#135f77" d="M174 86l-41 10-50-30z"/><path fill="#deb692" d="M220 87.6l19.7-2.1 23.8-26.4-.2-12.9z"/><path fill="#5da0c2" d="M96.9 54.8l-17.7-.4-9.7 2.6 68.4 11.9z"/><path fill="#43747e" d="M193 176l-90-3-10-28z"/><path fill="#676f76" d="M60.2 60.2l22-7.6-7.7-5 2.7 35.2z"/><ellipse cx="130" cy="191" fill="#00525e" rx="62" ry="13"/><path fill="#6f9bbf" d="M198.7 41.7l-.8-5 53.4-8.4.8 5z"/><ellipse fill="#f8fff8" rx="1" ry="1" transform="matrix(.27522 -3.0838 20.33765 1.81509 178.8 64.2)"/><ellipse cx="45" cy="23" fill="#dce8df" rx="23" ry="19"/><path fill="#26363a" d="M238 66l14-29 19-7z"/><ellipse cx="171" cy="9" fill="#ebf4e9" rx="24" ry="14"/><ellipse fill="#173a3e" rx="1" ry="1" transform="matrix(-15.77593 6.84571 -10.42854 -24.03255 90 89.3)"/><ellipse cx="12" cy="122" fill="#102020" rx="88" ry="33"/><path fill="#948a7f" d="M170.9 73.3l-63.4-.5 79.2 11.7-19.1-8.4z"/><path fill="#b2cac9" d="M146 133l11-41-45 24z"/><path fill="#36301c" d="M204 138h67l-2 33z"/><path fill="#f2d298" d="M206 76h38v7h-38z"/><path fill="#d0b19e" d="M235.4 150.2l-6.8 5.9-2-2.3 6.8-5.9z"/><path fill="#6b929a" d="M97.6 154.6l-11.1-14 76.6-2.1 13.2 23.8z"/><ellipse fill="#2d6481" rx="1" ry="1" transform="rotate(-128.3 93 -2.2) scale(8.43274 4.62454)"/><ellipse fill="#bddddd" rx="1" ry="1" transform="matrix(1.65837 13.90753 -63.54482 7.57726 48.5 2.8)"/><path fill="#f4daa2" d="M250.7 71.3l-66.9 40.2-.5-.8 66.9-40.2z"/><ellipse fill="#95b1d2" rx="1" ry="1" transform="rotate(-6.3 171 -2275) scale(34.68685 6.82435)"/><ellipse fill="#d7e3da" rx="1" ry="1" transform="matrix(-15.44268 2.94585 -.28125 -1.47438 157.7 113.5)"/><path fill="#2d626c" d="M176 205l5-66 44 20z"/><path fill="#e4f0e7" d="M135.7 63.8l28.2-33.3L28.8 10.9l120.3 52.8z"/><path fill="#78a0aa" d="M109.7 122.9l3.7-16.2 20 9.5-3.6-10.8z"/><path fill="#0b333d" d="M77 83L-6 27l53 17z"/><path fill="#d2bea3" d="M190.8 76.5l-14.6 8.7-1-1.7 14.6-8.7z"/><path fill="#44524a" d="M166.3 99.1l-13.1-2.4 15.6-10.5 29.8.9z"/><path fill="#323c3e" d="M75 97L26 33l-1 41z"/><path fill="#8e7366" d="M236 73l32-17-62 13z"/><path fill="#1a5d72" d="M188.2 71.6l-26 25.4-86.9-37.7 56 36.5z"/><path fill="#fdd2a6" d="M139 71h7v6h-7z"/><path fill="#393c28" d="M38 174l65-8-17-21z"/><path fill="#11739f" d="M85.1 57.3l31.6 9.7-1.8 5.7L83.3 63z"/><path fill="#c9e3e3" d="M271 8l-59 12 59 16z"/><path fill="#4785aa" d="M176.4 69.3l-6.5 9 9.6-.1 23.2-8.8z"/><path fill="#afccd9" d="M202.5 52l-2.4 15.2 25-13.7 14.5-22.3z"/><path fill="#615d45" d="M195 84l15 5-14 8z"/><path fill="#99875d" d="M188.8 89.9l17.9-24.2-22.9 48.9-23.6-9.3z"/><path fill="#98b0be" d="M174.4 39.1l-38.8-20.2 60.1 8.3 6.4 36.2z"/><path fill="#d6e7e1" d="M74 55l34-49-61 31z"/><path fill="#0f383b" d="M100 130l9-9-1-18z"/><path fill="#dbdac1" d="M154.9 109.5l-2.7.3-14.3 5.9 11.3 17.6z"/><path fill="#927841" d="M219 117l16-37-14 9z"/><path fill="#c0c2c0" d="M127.2 64.4l21-20.8-27.6 27.1-11.1 2.6z"/><path fill="#769fb2" d="M139.1 105.1l-8.6-10.3 32.3-4.8-29.8 14.9z"/><path fill="#1f2d20" d="M52 201l56-34-42-2z"/><path fill="#fff4c1" d="M249 89h7v4h-7z"/><ellipse cx="220" cy="147" fill="#1d2e25" rx="12" ry="5"/><path fill="#034458" d="M57.5 49.8l24.5 13-22.9-5.9-33.9-13.7z"/><path fill="#6d6162" d="M235 45l-18 15 29 3z"/><path fill="#c4dadb" d="M183 12l83-15-58-13z"/><path fill="#5c5b44" d="M100.1 169.6L104 158l-19.2 3.7-20.2-4.5z"/><path fill="#9a8131" d="M191 139.2l-1 2.9-41-13.3 1-2.9z"/><path fill="#897532" d="M223.6 142l-7.5-30 56.3-14 7.5 30z"/><path fill="#ecf2e8" d="M88.5 14.3L27.4 36.1l26.9 10.4-7.4-20.8z"/><ellipse fill="#2c312f" rx="1" ry="1" transform="matrix(20.78905 22.1381 -6.23136 5.85164 8.4 83.2)"/><path fill="#63622c" d="M175.8 118.7l-24.9 3.4 11.5 11.5 82.4 8.5z"/><path fill="#1b281e" d="M94.5 159.7l-22.8-.7-53.9-5.8L84 140z"/><path fill="#445159" d="M74.4 63.1l8.1 10.6 6.8 13.4-25.1-15.7z"/><path fill="#caa87a" d="M221 83l-2-21-7 15z"/><path fill="#47564f" d="M175.8 113.3l-13.5-9 27.8-17-33.6 8.1z"/><ellipse cx="139" cy="42" fill="#f2f7ec" rx="27" ry="8"/><path fill="#7e808b" d="M131 74l-17-3-6 6z"/><path fill="#0d4654" d="M121.9 87.4l-16.4 6.2-47.2-46.3L69 53.9z"/><path fill="#98aabf" d="M167.3 28.2l40.5-3-2.2-16.9L271 3.4z"/><path fill="#556a75" d="M123 66h17v6h-17z"/><path fill="#b6cfcd" d="M151 17l-17-9-20 11z"/><path fill="#aacbd8" d="M183.2 33.7l62.1-17.2-6.5 31.4 25-18.7z"/><ellipse cx="197" cy="39" fill="#6d8faf" rx="21" ry="2"/><ellipse cx="70" fill="#bacdcb" rx="30" ry="9"/><path fill="#579bb3" d="M100.3 130.5l8.5 9.8-15 13.2-8.6-9.8z"/><ellipse cx="254" cy="152" fill="#132a21" rx="15" ry="15"/><ellipse cx="200" cy="64" fill="#fff" rx="3" ry="3"/><path fill="#496e73" d="M196.6 147.2l-11.4 33-21.8-7.4 11.4-33z"/><path fill="#8d806c" d="M173.1 85.3l31.2-9.4-10.4-4.7-25.2 27.3z"/><ellipse cx="246" cy="73" fill="#f4d8aa" rx="5" ry="5"/><path fill="#c9e3e3" d="M66.2 18.4L10.8-15.8-16 8.6 28.4 31z"/><path fill="#88acae" d="M151.1 128.8l-1.3 15-28.9-2.6 1.3-15z"/><path fill="#274e36" d="M164.5 137l.3-.9 30.7 8.8-.3 1z"/><path fill="#9fabc4" d="M73 51l4 8 4-3z"/><path fill="#b39443" d="M153 116h9l-11 12z"/><path fill="#7aa2c1" d="M197.8 39.7l35.4 6.1-37.1 1.5 50.6-16.8z"/><path fill="#94beca" d="M96 137l46-43-12 35z"/><path fill="#276470" d="M128 174h68l-24 12z"/><path fill="#abcfd4" d="M148.3 60.1l-48.2-2 10.4-2.5 15.6-2.4z"/><path fill="#9f7d45" d="M270.8 85.4L247.7 126l14.8-65.4-19.3 27.2z"/><path fill="#377d9e" d="M146 66l23 5-14-10z"/><path fill="#2c3a3c" d="M261 39l-22 16 14-1z"/><path fill="#4d4d4d" d="M29 67h17L31 54z"/><path fill="#303719" d="M24 183l10-36 15 6z"/><path fill="#ab9f6c" d="M186.1 100.2l-31 3 17.7-5.4 14.3-1.6z"/><ellipse fill="#5f7c82" rx="1" ry="1" transform="rotate(173.9 76.3 83) scale(23.16 9.01371)"/><path fill="#859aae" d="M165 25h21v6h-21z"/><path fill="#c5d0ca" d="M164 32h13v18h-13z"/><path fill="#bcd9d7" d="M61.4 46.9L49.8 39l6.8-10 11.6 8z"/><ellipse cx="145" cy="80" fill="#6e7883" rx="12" ry="3"/><ellipse cx="125" cy="191" fill="#004f5a" rx="60" ry="7"/><ellipse fill="#ebf0e8" rx="1" ry="1" transform="matrix(-9.63787 -1.4748 1.00335 -6.55693 38.5 35)"/><path fill="#7e6c55" d="M210.5 78.3l-4.8-4.6-24.1 34.1 35.6-40z"/><ellipse fill="#677f7c" rx="1" ry="1" transform="rotate(-128.3 94.5 51.6) scale(1 36.52115)"/><path fill="#adbcbd" d="M148 96l-21 6 46 10z"/><ellipse cx="170" cy="69" fill="#849ca6" rx="4" ry="4"/><ellipse fill="#1b2214" rx="1" ry="1" transform="matrix(-51.12275 -28.339 12.65438 -22.82814 21.5 191)"/><path fill="#e1eee8" d="M203.4 52.3l.2-5 9 .4-.2 5z"/><path fill="#3f433a" d="M49.4 198.3l13.5-13.1 13.7-7.2-29.9 28.6z"/><path fill="#6f6a33" d="M230 112l-21 29-51-20z"/><path fill="#18586b" d="M137 81h27v11h-27z"/><path fill="#cfe2dc" d="M139.2 20.6l-48.5.9 31.1 10.6 30.6-2.3z"/></g></svg>