<?xml version="1.0" standalone="no"?>
<!DOCTYPE svg PUBLIC "-//W3C//DTD SVG 20010904//EN"
 "http://www.w3.org/TR/2001/REC-SVG-20010904/DTD/svg10.dtd">
<svg version="1.0" xmlns="http://www.w3.org/2000/svg"
 width="1200.000000pt" height="1200.000000pt" viewBox="0 0 1200.000000 1200.000000"
 preserveAspectRatio="xMidYMid meet">
<metadata>
Created by potrace 1.11, written by Peter Selinger 2001-2013
</metadata>
<g transform="translate(0.000000,1200.000000) scale(0.100000,-0.100000)"
fill="#000000" stroke="none">
<path d="M1148 8175 c-2 -11 -3 -996 -2 -2188 0 -1561 3 -2170 11 -2175 8 -5
538 -8 576 -3 4 1 7 471 7 1046 l0 1045 23 0 c12 1 402 2 867 3 l845 2 1 120
c1 66 3 125 4 130 1 6 1 12 0 15 -1 3 -2 53 -3 112 -1 58 -5 110 -9 113 -10
11 -150 12 -170 3 -10 -5 -18 -5 -18 0 0 9 -53 8 -69 -3 -6 -3 -11 -2 -11 2 0
10 -53 9 -69 -2 -6 -3 -11 -2 -11 2 0 9 -57 9 -66 0 -3 -3 -20 -1 -38 3 -19 4
-40 4 -47 -1 -7 -4 -17 -5 -23 -2 -13 9 -106 9 -106 1 0 -4 -7 -5 -16 -1 -25
9 -147 10 -166 0 -10 -4 -18 -4 -18 1 0 9 -53 8 -69 -3 -6 -3 -11 -2 -11 2 0
10 -53 9 -69 -2 -6 -3 -11 -2 -11 2 0 9 -57 9 -66 0 -3 -3 -20 -1 -38 3 -19 4
-40 4 -47 -1 -7 -4 -17 -5 -23 -2 -13 9 -106 9 -106 1 0 -4 -7 -5 -16 -1 -25
9 -147 10 -166 0 -10 -4 -18 -4 -18 1 0 9 -53 8 -69 -3 -6 -3 -11 -2 -11 2 0
10 -53 9 -69 -2 -6 -3 -11 -2 -11 2 0 8 -35 9 -65 3 -35 -8 -35 -14 -35 645
l0 645 28 1 c15 1 448 2 962 2 l935 2 1 248 c0 217 -2 247 -15 248 -9 0 -575
1 -1258 2 -1235 2 -1242 2 -1245 -18z"/>
<path d="M5584 8192 l-20 -3 0 -2192 1 -2191 675 0 c599 1 863 6 995 19 22 2
65 7 95 10 30 3 69 7 85 10 17 2 52 7 79 10 27 3 52 8 56 10 3 2 24 6 45 9 57
7 252 52 303 70 23 8 43 15 45 15 38 -4 477 192 477 212 0 5 5 9 11 9 12 0
102 61 107 73 2 4 7 7 12 7 13 0 77 57 175 155 135 135 246 302 329 495 15 36
31 74 36 85 10 23 68 211 74 241 3 10 9 39 15 64 5 25 13 61 16 80 3 19 8 51
12 70 3 19 7 46 9 60 1 14 3 25 4 25 1 0 3 16 5 35 1 19 6 69 10 110 10 92 11
515 2 625 -12 139 -24 234 -34 275 -3 14 -8 34 -10 45 -10 59 -12 72 -18 95
-3 14 -11 45 -17 70 -10 44 -61 205 -77 245 -5 11 -29 63 -55 116 -25 53 -46
102 -46 108 0 6 -3 11 -7 11 -5 0 -20 21 -36 48 -47 81 -54 91 -87 128 -8 10
-22 28 -30 40 -26 38 -132 146 -190 194 -30 25 -57 47 -60 50 -3 3 -22 16 -42
30 -21 14 -38 28 -38 33 0 4 -4 7 -10 7 -5 0 -39 18 -74 40 -99 60 -309 159
-371 174 -5 1 -47 14 -92 29 -46 15 -93 29 -105 31 -41 9 -62 14 -103 24 -22
6 -53 13 -70 16 -16 2 -68 11 -115 19 -94 17 -174 28 -235 33 -22 1 -67 5
-100 9 -137 13 -354 17 -965 18 -355 1 -654 1 -666 -1z m1541 -496 c39 -4 90
-8 115 -10 146 -12 430 -78 535 -124 114 -50 161 -74 230 -117 44 -28 91 -60
104 -70 65 -52 191 -188 232 -250 46 -69 103 -165 105 -175 0 -3 8 -23 18 -45
62 -138 120 -369 141 -560 22 -197 22 -506 0 -685 -17 -141 -19 -153 -50 -290
0 -3 -4 -14 -8 -25 -3 -11 -8 -31 -11 -45 -17 -94 -103 -285 -184 -408 -47
-73 -179 -218 -237 -262 -82 -62 -101 -74 -212 -132 -87 -45 -293 -124 -293
-111 0 3 -6 1 -12 -4 -7 -6 -31 -14 -53 -18 -22 -5 -44 -9 -50 -11 -21 -4
-132 -23 -170 -29 -23 -3 -51 -7 -64 -10 -63 -12 -276 -18 -671 -19 l-434 -1
-1 1700 c-1 935 0 1702 1 1705 3 8 884 3 969 -4z"/>
<path d="M3710 4550 c-5 -3 -8 -172 -7 -375 l2 -369 308 0 307 -1 1 30 c3 187
0 708 -5 712 -7 8 -595 10 -606 3z"/>
<path d="M10263 4550 c-17 -5 -18 -26 -18 -375 l0 -369 290 -1 c160 0 299 1
310 3 20 3 20 11 20 374 l-1 371 -291 1 c-161 1 -300 -1 -310 -4z"/>
</g>
</svg>
